<svg
    xmlns="http://www.w3.org/2000/svg"
    xmlns:xlink="http://www.w3.org/1999/xlink"
    viewBox="0 0 512 512"
    aria-hidden="true"
    focusable="false"
>
    <use
        xlink:href="#A"
        transform="matrix(1.5 0 0 1.5 -245.99999 -10.000007)"
        filter="url(#B)"
    />
    <use
        xlink:href="#A"
        y="412"
        transform="matrix(1.5 0 0 1.5 -245.99999 -245.99999)"
    />
    <path
        d="M65 80a15.01 15.01 0 0 0 15-15 15.01 15.01 0 0 0-15-15 15.01 15.01 0 0 0-15 15 15.01 15.01 0 0 0 15 15zm0 0"
    />
    <use
        xlink:href="#A"
        x="-412"
        y="412"
        transform="matrix(1.5 0 0 1.5 -10.000007 -245.99999)"
    />
    <g>
        <path
            d="M458.665 4.145H53.335c-27.124 0-49.191 22.067-49.191 49.191v405.329c0 27.124 22.067 49.191 49.191 49.191h405.329c27.124 0 49.191-22.067 49.191-49.191V53.335c0-27.124-22.067-49.191-49.191-49.191zm29.514 454.52c0 16.275-13.239 29.514-29.514 29.514H53.335c-16.275 0-29.514-13.239-29.514-29.514V53.335c0-16.275 13.239-29.514 29.514-29.514h405.329c16.275 0 29.514 13.239 29.514 29.514zM367.772 174.711c0-50.424-41.025-91.45-91.45-91.45H256a10.161 10.161 0 0 0-10.161 10.161v84.734c-16.953-20.946-42.799-33.929-71.127-33.929-50.424 0-91.45 41.025-91.45 91.45V256c0 5.612 4.549 10.149 10.161 10.149h84.734c-20.946 16.957-33.929 42.812-33.929 71.14 0 50.424 41.025 91.45 91.45 91.45H256a10.161 10.161 0 0 0 10.161-10.161v-84.734c16.953 20.946 42.799 33.929 71.127 33.929 50.424 0 91.45-41.025 91.45-91.45V256a10.161 10.161 0 0 0-10.161-10.161h-84.734c20.946-16.953 33.929-42.799 33.929-71.127zm-91.45-71.127c39.22 0 71.127 31.908 71.127 71.127a71.08 71.08 0 0 1-43.189 65.428c-5.656-17.195-20.231-30.265-38.1-33.913V103.584zM257.933 286.42c-17.242 1.039-31.345-12.118-32.353-28.487-1.071-17.779 13.011-32.417 30.42-32.417 16.682 0 30.483 13.53 30.483 30.483 0 16.071-12.551 29.436-28.551 30.42zm-154.349-50.742c0-39.22 31.908-71.127 71.127-71.127a71.08 71.08 0 0 1 65.428 43.189c-17.195 5.656-30.265 20.231-33.913 38.1H103.584zm132.094 172.738c-39.22 0-71.127-31.908-71.127-71.127a71.08 71.08 0 0 1 43.189-65.428c5.656 17.195 20.231 30.265 38.1 33.913v102.643zm172.738-132.094c0 39.22-31.908 71.127-71.127 71.127a71.08 71.08 0 0 1-65.428-43.189c17.195-5.656 30.265-20.231 33.913-38.1h102.643zm0 0"
            stroke-width="5.761"
        />
        <circle
            cx="257.201"
            cy="257.229"
            r="207.024"
            fill="none"
            stroke-width="34.016"
        />
    </g>
    <defs>
        <path
            id="A"
            d="M462 40c-5.52 0-10 4.48-10 10s4.48 10 10 10 10-4.48 10-10-4.48-10-10-10zm0 0"
        />
        <filter
            id="B"
            x="0"
            width="1"
            y="0"
            height="1"
            color-interpolation-filters="sRGB"
        >
        <feGaussianBlur stdDeviation="0" />
        </filter>
    </defs>
</svg>